<svg width="17" height="15" viewBox="0 0 17 15" fill="none" xmlns="http://www.w3.org/2000/svg">
<path d="M15.9782 6.30639C15.9086 6.2951 15.8383 6.28989 15.7678 6.29081H3.77466L4.03617 6.16917C4.29179 6.04818 4.52434 5.88352 4.7234 5.68264L8.08659 2.31945C8.52952 1.89662 8.60395 1.21642 8.26296 0.707801C7.86609 0.165807 7.105 0.0481261 6.56297 0.444995C6.51918 0.477076 6.47756 0.512046 6.43844 0.549677L0.35674 6.63138C-0.118546 7.10614 -0.118964 7.87627 0.355789 8.35155C0.356093 8.35186 0.356436 8.3522 0.35674 8.3525L6.43844 14.4342C6.91411 14.9085 7.68424 14.9075 8.15862 14.4318C8.19594 14.3944 8.2308 14.3545 8.26296 14.3126C8.60395 13.804 8.52952 13.1238 8.08659 12.7009L4.72949 9.33166C4.55103 9.15301 4.34584 9.00321 4.12131 8.88769L3.75641 8.72349H15.7009C16.3222 8.74656 16.8674 8.31252 16.9841 7.70176C17.0917 7.03867 16.6413 6.41396 15.9782 6.30639Z" fill="white"/>
</svg>
