<svg width="11" height="10" viewBox="0 0 11 10" fill="none" xmlns="http://www.w3.org/2000/svg">
<path d="M0.661154 4.37444C0.706163 4.36713 0.751714 4.36376 0.797289 4.36435H8.55757L8.38836 4.28565C8.22296 4.20736 8.07248 4.10082 7.94368 3.97083L5.7675 1.79465C5.48089 1.52106 5.43274 1.08093 5.65338 0.751819C5.91018 0.401117 6.40264 0.324971 6.75337 0.581769C6.7817 0.602527 6.80864 0.625154 6.83395 0.649504L10.7692 4.58473C11.0767 4.89192 11.077 5.39024 10.7698 5.69778C10.7696 5.69798 10.7694 5.6982 10.7692 5.69839L6.83395 9.63362C6.52616 9.94054 6.02784 9.93985 5.72089 9.63207C5.69674 9.60784 5.67419 9.58207 5.65338 9.55491C5.43274 9.22581 5.48089 8.78568 5.7675 8.51208L7.93974 6.33197C8.05522 6.21637 8.18798 6.11944 8.33327 6.04469L8.56938 5.93844H0.8406C0.438543 5.95337 0.0857997 5.67252 0.010268 5.27733C-0.0593117 4.84826 0.232092 4.44404 0.661154 4.37444Z" fill="#DADADA"/>
</svg>
