<svg width="17" height="15" viewBox="0 0 17 15" fill="none" xmlns="http://www.w3.org/2000/svg">
<path d="M1.0218 8.69361C1.09135 8.7049 1.16175 8.7101 1.23218 8.70919L13.2253 8.70919L12.9638 8.83083C12.7082 8.95182 12.4757 9.11648 12.2766 9.31736L8.91341 12.6805C8.47048 13.1034 8.39605 13.7836 8.73704 14.2922C9.13391 14.8342 9.895 14.9519 10.437 14.555C10.4808 14.5229 10.5224 14.488 10.5616 14.4503L16.6433 8.36862C17.1185 7.89386 17.119 7.12373 16.6442 6.64845C16.6439 6.64814 16.6436 6.6478 16.6433 6.6475L10.5616 0.565791C10.0859 0.0914549 9.31576 0.0925191 8.84139 0.568184C8.80406 0.605624 8.7692 0.645459 8.73705 0.687423C8.39605 1.19604 8.47048 1.87624 8.91342 2.29908L12.2705 5.66834C12.449 5.84699 12.6542 5.99679 12.8787 6.11231L13.2436 6.27651L1.29912 6.27651C0.67776 6.25344 0.132611 6.68748 0.0158812 7.29824C-0.0916513 7.96133 0.3587 8.58604 1.0218 8.69361Z" fill="white"/>
</svg>
