<svg width="13" height="13" viewBox="0 0 13 13" fill="none" xmlns="http://www.w3.org/2000/svg">
<path d="M1.53721 12C1.43097 12 1.3271 11.9685 1.23876 11.9095C1.15041 11.8505 1.08155 11.7666 1.04089 11.6684C1.00023 11.5703 0.989593 11.4623 1.01033 11.3581C1.03106 11.2539 1.08223 11.1582 1.15737 11.0831L11.0831 1.15734C11.1839 1.0566 11.3205 1 11.463 1C11.6055 1 11.7421 1.0566 11.8428 1.15734C11.9436 1.25808 12.0002 1.39471 12.0002 1.53718C12.0002 1.67964 11.9436 1.81628 11.8428 1.91702L1.91705 11.8427C1.86722 11.8927 1.80801 11.9323 1.74282 11.9593C1.67764 11.9863 1.60776 12.0001 1.53721 12Z" fill="#0D1342" stroke="#0D1342" stroke-width="0.3"/>
<path d="M11.463 12C11.3924 12.0001 11.3225 11.9863 11.2573 11.9593C11.1922 11.9323 11.133 11.8927 11.0831 11.8427L1.15734 1.91702C1.0566 1.81628 1 1.67964 1 1.53718C1 1.39471 1.0566 1.25808 1.15734 1.15734C1.25808 1.0566 1.39471 1 1.53718 1C1.67965 1 1.81628 1.0566 1.91702 1.15734L11.8428 11.0831C11.9179 11.1582 11.9691 11.2539 11.9898 11.3581C12.0106 11.4623 11.9999 11.5703 11.9593 11.6684C11.9186 11.7666 11.8498 11.8505 11.7614 11.9095C11.6731 11.9685 11.5692 12 11.463 12Z" fill="#0D1342" stroke="#0D1342" stroke-width="0.3"/>
</svg>
