<svg width="12" height="8" viewBox="0 0 12 8" fill="none" xmlns="http://www.w3.org/2000/svg">
<path d="M5.53078 0.666909L0.190729 6.00706C0.0671204 6.13057 -0.000976616 6.29545 -0.000976609 6.47125C-0.000976601 6.64706 0.0671204 6.81193 0.190729 6.93544L0.583897 7.32871C0.84009 7.58461 1.25648 7.58461 1.51228 7.32871L5.99654 2.84445L10.4858 7.33368C10.6094 7.4572 10.7742 7.52539 10.9499 7.52539C11.1258 7.52539 11.2905 7.4572 11.4142 7.33368L11.8073 6.94042C11.9309 6.81681 11.999 6.65203 11.999 6.47623C11.999 6.30042 11.9309 6.13555 11.8073 6.01204L6.46239 0.666909C6.33839 0.543105 6.17283 0.475106 5.99683 0.475496C5.82015 0.475106 5.65468 0.543105 5.53078 0.666909Z" fill="#085CF0"/>
</svg>
