<svg width="16" height="16" viewBox="0 0 16 16" fill="none" xmlns="http://www.w3.org/2000/svg">
<path d="M2.77533 10.8994C2.64733 10.8994 2.51958 10.8506 2.42183 10.7529C2.22658 10.5576 2.22658 10.2411 2.42183 10.0459L10.2353 2.23237C10.4303 2.03712 10.7471 2.03712 10.9423 2.23237C11.1376 2.42763 11.1376 2.74413 10.9423 2.93938L3.12883 10.7529C3.03133 10.8504 2.90333 10.8994 2.77533 10.8994Z" fill="white"/>
<path d="M2.00441 14.5003C1.96966 14.5003 1.93441 14.4965 1.89916 14.489C1.62916 14.431 1.45716 14.1653 1.51516 13.8953L2.28766 10.2945C2.34566 10.0245 2.61266 9.85302 2.88141 9.91052C3.15141 9.96852 3.32341 10.2343 3.26541 10.5043L2.49291 14.105C2.44266 14.3398 2.23516 14.5003 2.00441 14.5003Z" fill="white"/>
<path d="M5.60541 13.7273C5.47741 13.7273 5.34966 13.6785 5.25191 13.5808C5.05666 13.3855 5.05666 13.069 5.25191 12.8737L13.0654 5.0605C13.2604 4.86525 13.5772 4.86525 13.7724 5.0605C13.9677 5.25575 13.9677 5.57225 13.7724 5.7675L5.95916 13.5808C5.86141 13.6785 5.73341 13.7273 5.60541 13.7273Z" fill="white"/>
<path d="M2.00358 14.5001C1.77283 14.5001 1.56558 14.3396 1.51508 14.1048C1.45733 13.8348 1.62908 13.5691 1.89908 13.5111L5.49983 12.7386C5.77008 12.6813 6.03583 12.8528 6.09358 13.1226C6.15133 13.3926 5.97958 13.6583 5.70958 13.7163L2.10883 14.4888C2.07358 14.4966 2.03833 14.5001 2.00358 14.5001Z" fill="white"/>
<path d="M12.004 7.32819C11.876 7.32819 11.748 7.27944 11.6505 7.18169L8.82222 4.35344C8.62697 4.15819 8.62697 3.84169 8.82222 3.64644C9.01722 3.45119 9.33422 3.45119 9.52922 3.64644L12.3575 6.47469C12.5527 6.66994 12.5527 6.98644 12.3575 7.18169C12.26 7.27944 12.132 7.32819 12.004 7.32819Z" fill="white"/>
<path d="M13.4185 5.91431C13.2905 5.91431 13.1625 5.86556 13.0648 5.76781C12.8695 5.57256 12.8695 5.25606 13.0648 5.06056C13.343 4.78231 13.4963 4.40556 13.4963 4.00006C13.4963 3.59456 13.343 3.21781 13.0648 2.93956C12.7863 2.66106 12.4095 2.50781 12.004 2.50781C11.5985 2.50781 11.2218 2.66106 10.9435 2.93956C10.7485 3.13481 10.432 3.13506 10.2363 2.93956C10.041 2.74431 10.041 2.42781 10.2363 2.23231C10.7033 1.76506 11.331 1.50781 12.004 1.50781C12.6768 1.50781 13.3048 1.76506 13.7718 2.23231C14.239 2.69931 14.4963 3.32706 14.4963 4.00006C14.4963 4.67306 14.239 5.30081 13.7718 5.76781C13.6745 5.86531 13.5465 5.91431 13.4185 5.91431Z" fill="white"/>
</svg>
