<svg width="20" height="12" viewBox="0 0 20 12" fill="none" xmlns="http://www.w3.org/2000/svg">
<path d="M18.1396 0.280273H4.49961C3.53161 0.280273 2.73961 1.07227 2.73961 2.04027V2.70027C2.73961 2.94227 2.93761 3.14027 3.17961 3.14027C3.42161 3.14027 3.61961 2.94227 3.61961 2.70027V2.04027C3.61961 1.95227 3.64161 1.86427 3.66361 1.77627L8.59161 6.00027L3.66361 10.2243C3.64161 10.1363 3.61961 10.0483 3.61961 9.96027V9.30027C3.61961 9.05827 3.42161 8.86027 3.17961 8.86027C2.93761 8.86027 2.73961 9.05827 2.73961 9.30027V9.96027C2.73961 10.9283 3.53161 11.7203 4.49961 11.7203H18.1396C19.1076 11.7203 19.8996 10.9283 19.8996 9.96027V2.04027C19.8996 1.07227 19.1076 0.280273 18.1396 0.280273ZM4.32361 1.18227C4.36761 1.16027 4.43361 1.16027 4.49961 1.16027H18.1396C18.2056 1.16027 18.2716 1.16027 18.3156 1.18227L11.6056 6.92427C11.4296 7.05627 11.2096 7.05627 11.0336 6.92427L4.32361 1.18227ZM18.1396 10.8403H4.49961C4.43361 10.8403 4.36761 10.8403 4.32361 10.8183L9.27361 6.57227L10.4616 7.60627C10.7036 7.82627 11.0116 7.93627 11.3196 7.93627C11.6276 7.93627 11.9356 7.82627 12.1776 7.60627L13.3656 6.57227L18.3156 10.8183C18.2716 10.8403 18.2056 10.8403 18.1396 10.8403ZM19.0196 9.96027C19.0196 10.0483 18.9976 10.1363 18.9756 10.2243L14.0476 6.00027L18.9756 1.77627C18.9976 1.86427 19.0196 1.95227 19.0196 2.04027V9.96027ZM1.41961 4.90027C1.41961 4.65827 1.61761 4.46027 1.85961 4.46027H4.49961C4.74161 4.46027 4.93961 4.65827 4.93961 4.90027C4.93961 5.14227 4.74161 5.34027 4.49961 5.34027H1.85961C1.61761 5.34027 1.41961 5.14227 1.41961 4.90027ZM4.49961 7.54027H0.539609C0.297609 7.54027 0.0996094 7.34227 0.0996094 7.10027C0.0996094 6.85827 0.297609 6.66027 0.539609 6.66027H4.49961C4.74161 6.66027 4.93961 6.85827 4.93961 7.10027C4.93961 7.34227 4.74161 7.54027 4.49961 7.54027Z" fill="white"/>
</svg>
