<svg width="18" height="18" viewBox="0 0 18 18" fill="none" xmlns="http://www.w3.org/2000/svg">
<path d="M10.0938 8.70801C10.0938 8.3801 9.82791 8.11426 9.5 8.11426C9.17209 8.11426 8.90625 8.3801 8.90625 8.70801V13.458C8.90625 13.7859 9.17209 14.0518 9.5 14.0518C9.82791 14.0518 10.0938 13.7859 10.0938 13.458V8.70801Z" fill="white"/>
<path fill-rule="evenodd" clip-rule="evenodd" d="M9.49967 0.989258C4.7995 0.989258 0.989258 4.7995 0.989258 9.49967C0.989258 14.1999 4.7995 18.0101 9.49967 18.0101C14.1999 18.0101 18.0101 14.1999 18.0101 9.49967C18.0101 4.7995 14.1999 0.989258 9.49967 0.989258ZM2.17676 9.49967C2.17676 5.45534 5.45534 2.17676 9.49967 2.17676C13.544 2.17676 16.8226 5.45534 16.8226 9.49967C16.8226 13.544 13.544 16.8226 9.49967 16.8226C5.45534 16.8226 2.17676 13.544 2.17676 9.49967Z" fill="white"/>
<path d="M10.2913 6.33268C10.2913 6.7699 9.93691 7.12435 9.49967 7.12435C9.06244 7.12435 8.70801 6.7699 8.70801 6.33268C8.70801 5.89546 9.06244 5.54102 9.49967 5.54102C9.93691 5.54102 10.2913 5.89546 10.2913 6.33268Z" fill="white"/>
</svg>
