<svg width="22" height="14" viewBox="0 0 22 14" fill="none" xmlns="http://www.w3.org/2000/svg">
<path d="M11 0.443359C6.79667 0.443359 2.98486 2.74304 0.172139 6.47834C-0.0573796 6.78436 -0.0573796 7.2119 0.172139 7.51792C2.98486 11.2577 6.79667 13.5574 11 13.5574C15.2033 13.5574 19.0151 11.2577 21.8279 7.52242C22.0574 7.2164 22.0574 6.78887 21.8279 6.48284C19.0151 2.74304 15.2033 0.443359 11 0.443359ZM11.3015 11.6177C8.5113 11.7933 6.20712 9.49358 6.38263 6.69886C6.52664 4.39467 8.39429 2.52703 10.6985 2.38301C13.4887 2.2075 15.7929 4.50718 15.6174 7.30191C15.4689 9.60159 13.6012 11.4692 11.3015 11.6177ZM11.162 9.48458C9.65889 9.57909 8.4168 8.34149 8.5158 6.83837C8.59231 5.59627 9.60039 4.59269 10.8425 4.51168C12.3456 4.41718 13.5877 5.65477 13.4887 7.15789C13.4077 8.40449 12.3996 9.40807 11.162 9.48458Z" fill="#085CF0"/>
</svg>
