<svg width="15" height="15" viewBox="0 0 15 15" fill="none" xmlns="http://www.w3.org/2000/svg">
<g clip-path="url(#clip0_339_1715)">
<path d="M7.5 0C3.35476 0 0 3.35438 0 7.5C0 11.6452 3.35438 15 7.5 15C11.6452 15 15 11.6456 15 7.5C15 3.35476 11.6456 0 7.5 0ZM7.5 13.9535C3.94154 13.9535 1.04651 11.0585 1.04651 7.5C1.04651 3.94151 3.94154 1.04651 7.5 1.04651C11.0585 1.04651 13.9535 3.94151 13.9535 7.5C13.9535 11.0585 11.0585 13.9535 7.5 13.9535Z" fill="#B7C7E0"/>
<path d="M7.27812 9.49023C6.86349 9.49023 6.52783 9.83576 6.52783 10.2504C6.52783 10.6552 6.85361 11.0106 7.27812 11.0106C7.70264 11.0106 8.03826 10.6552 8.03826 10.2504C8.03826 9.83576 7.69273 9.49023 7.27812 9.49023Z" fill="#B7C7E0"/>
<path d="M7.40627 3.73438C6.0735 3.73438 5.46143 4.52419 5.46143 5.05728C5.46143 5.44229 5.78721 5.62001 6.05375 5.62001C6.58687 5.62001 6.36969 4.85981 7.37665 4.85981C7.87024 4.85981 8.26517 5.07702 8.26517 5.53115C8.26517 6.06424 7.7123 6.37027 7.38652 6.64669C7.1002 6.89346 6.72509 7.29825 6.72509 8.14728C6.72509 8.66062 6.86331 8.80871 7.26805 8.80871C7.75177 8.80871 7.8505 8.59153 7.8505 8.40392C7.8505 7.89058 7.86037 7.59441 8.40336 7.1699C8.6699 6.9626 9.50902 6.29126 9.50902 5.36328C9.50902 4.4353 8.6699 3.73438 7.40627 3.73438Z" fill="#B7C7E0"/>
</g>
<defs>
<clipPath id="clip0_339_1715">
<rect width="15" height="15" fill="white"/>
</clipPath>
</defs>
</svg>
