<svg width="14" height="14" viewBox="0 0 14 14" fill="none" xmlns="http://www.w3.org/2000/svg">
<path d="M11.69 14H2.31C1.05 14 0 12.936 0 11.662V6.552C0 5.908 0.28 5.278 0.77 4.844L5.46 0.588C6.37 -0.196 7.63 -0.196 8.54 0.588L13.23 4.844C13.72 5.264 14 5.908 14 6.552V11.662C13.93 13.006 12.95 14 11.69 14ZM7 1.442C6.79 1.442 6.58 1.512 6.37 1.652L1.68 5.908C1.47 6.048 1.4 6.328 1.4 6.622V11.732C1.4 12.222 1.82 12.656 2.31 12.656H11.62C12.11 12.656 12.53 12.236 12.53 11.732V6.622C12.53 6.342 12.39 6.132 12.25 5.908L7.56 1.652C7.42 1.512 7.21 1.442 7 1.442Z" fill="#B7C7E0"/>
</svg>
