<svg width="8" height="8" viewBox="0 0 8 8" fill="none" xmlns="http://www.w3.org/2000/svg">
<path fill-rule="evenodd" clip-rule="evenodd" d="M7.49976 6.79343C7.69501 6.98873 7.69498 7.30528 7.4997 7.50053C7.30442 7.69578 6.98784 7.69578 6.79259 7.50048L3.99997 4.70738L1.20712 7.50023C1.01187 7.69548 0.69527 7.69548 0.50002 7.50023C0.30477 7.30498 0.30477 6.98838 0.50002 6.79313L3.29292 4.00023L0.50022 1.20704C0.30502 1.01176 0.30502 0.695179 0.50032 0.499934C0.69557 0.304684 1.01217 0.304714 1.20742 0.499994L4.00007 3.29313L6.79293 0.500234C6.98819 0.304974 7.30478 0.304974 7.50004 0.500234C7.6953 0.695499 7.6953 1.01208 7.50004 1.20734L4.70707 4.00028L7.49976 6.79343Z" fill="#FFBB0B"/>
</svg>
