<svg width="90" height="28" viewBox="0 0 90 28" fill="none" xmlns="http://www.w3.org/2000/svg">
<path d="M73.5508 16.4371V22.9996H71.9587V8.4541H73.5508V13.795H73.6857C73.9285 13.2316 74.2928 12.7841 74.7785 12.4527C75.2687 12.1165 75.9208 11.9484 76.7348 11.9484C77.4409 11.9484 78.0592 12.0976 78.5899 12.3959C79.1206 12.6894 79.5321 13.1416 79.8244 13.7524C80.1212 14.3585 80.2696 15.1302 80.2696 16.0677V22.9996H78.6776V16.1814C78.6776 15.3149 78.464 14.6449 78.0368 14.1714C77.614 13.6932 77.0271 13.4541 76.2761 13.4541C75.7544 13.4541 75.2867 13.5701 74.8729 13.8021C74.4637 14.0341 74.1399 14.3727 73.9015 14.8177C73.6677 15.2628 73.5508 15.8026 73.5508 16.4371Z" fill="white"/>
<path d="M64.3039 23.2555C63.6473 23.2555 63.0514 23.1253 62.5162 22.8649C61.981 22.5998 61.5561 22.2186 61.2413 21.7215C60.9264 21.2196 60.769 20.6135 60.769 19.9033C60.769 19.2783 60.886 18.7716 61.1198 18.3834C61.3537 17.9904 61.6662 17.6826 62.0575 17.4601C62.4488 17.2376 62.8805 17.0718 63.3527 16.9629C63.8294 16.8493 64.3084 16.7593 64.7896 16.693C65.4192 16.6078 65.9296 16.5439 66.3209 16.5013C66.7166 16.4539 67.0045 16.3758 67.1843 16.2669C67.3687 16.158 67.4609 15.9686 67.4609 15.6987V15.6419C67.4609 14.9412 67.2788 14.3966 66.9145 14.0084C66.5547 13.6201 66.0083 13.426 65.2753 13.426C64.5152 13.426 63.9194 13.6012 63.4876 13.9516C63.0559 14.3019 62.7523 14.676 62.5769 15.0737L61.0659 14.5055C61.3357 13.8427 61.6955 13.3266 62.1452 12.9573C62.5994 12.5832 63.0941 12.3228 63.6293 12.176C64.169 12.0245 64.6996 11.9487 65.2213 11.9487C65.5541 11.9487 65.9364 11.9913 66.3681 12.0766C66.8043 12.1571 67.2248 12.3251 67.6296 12.5808C68.0388 12.8365 68.3784 13.2224 68.6482 13.7385C68.918 14.2546 69.0529 14.9459 69.0529 15.8124V22.9999H67.4609V21.5226H67.38C67.272 21.7593 67.0922 22.0126 66.8403 22.2825C66.5885 22.5524 66.2534 22.7821 65.8352 22.9715C65.4169 23.1608 64.9065 23.2555 64.3039 23.2555ZM64.5467 21.7499C65.1763 21.7499 65.707 21.6197 66.1387 21.3592C66.575 21.0988 66.9033 20.7626 67.1236 20.3507C67.3485 19.9388 67.4609 19.5055 67.4609 19.051V17.5169C67.3935 17.6021 67.2451 17.6803 67.0157 17.7513C66.7908 17.8176 66.53 17.8768 66.2332 17.9288C65.9409 17.9762 65.6553 18.0188 65.3765 18.0567C65.1021 18.0898 64.8795 18.1182 64.7086 18.1419C64.2949 18.1987 63.9081 18.2911 63.5483 18.4189C63.1931 18.542 62.9052 18.729 62.6849 18.98C62.469 19.2262 62.3611 19.5624 62.3611 19.9885C62.3611 20.5709 62.5657 21.0112 62.9749 21.3095C63.3887 21.6031 63.9126 21.7499 64.5467 21.7499Z" fill="white"/>
<path d="M54.5424 23.2271C53.544 23.2271 52.6828 22.9951 51.9588 22.5311C51.2392 22.0624 50.6838 21.409 50.2925 20.5709C49.9058 19.7281 49.7124 18.748 49.7124 17.6305C49.7124 16.5131 49.9058 15.5283 50.2925 14.676C50.6838 13.819 51.228 13.1514 51.925 12.6732C52.6266 12.1902 53.4451 11.9487 54.3805 11.9487C54.9202 11.9487 55.4531 12.0434 55.9793 12.2328C56.5055 12.4222 56.9844 12.73 57.4162 13.1561C57.8479 13.5775 58.1919 14.1362 58.4483 14.8323C58.7046 15.5283 58.8328 16.3853 58.8328 17.4033V18.1135H50.8457V16.6646H57.2138C57.2138 16.0491 57.0969 15.4999 56.863 15.0169C56.6336 14.534 56.3053 14.1528 55.8781 13.8734C55.4554 13.5941 54.9562 13.4544 54.3805 13.4544C53.7464 13.4544 53.1978 13.6201 52.7345 13.9516C52.2758 14.2783 51.9228 14.7044 51.6754 15.23C51.4281 15.7555 51.3044 16.319 51.3044 16.9203V17.8862C51.3044 18.7101 51.4393 19.4085 51.7092 19.9814C51.9835 20.5496 52.3635 20.9828 52.8492 21.2811C53.3349 21.5747 53.8993 21.7215 54.5424 21.7215C54.9607 21.7215 55.3384 21.6599 55.6757 21.5368C56.0175 21.409 56.3121 21.2196 56.5594 20.9686C56.8068 20.7129 56.9979 20.3957 57.1328 20.0169L58.6709 20.4715C58.509 21.0207 58.2369 21.5037 57.8546 21.9203C57.4724 22.3322 57.0002 22.6542 56.438 22.8862C55.8759 23.1135 55.244 23.2271 54.5424 23.2271Z" fill="white"/>
<path d="M40.5669 16.4371V22.9996H38.9749V8.4541H40.5669V13.795H40.7018C40.9446 13.2316 41.3089 12.7841 41.7946 12.4527C42.2848 12.1165 42.9369 11.9484 43.7509 11.9484C44.457 11.9484 45.0754 12.0976 45.606 12.3959C46.1367 12.6894 46.5482 13.1416 46.8405 13.7524C47.1373 14.3585 47.2857 15.1302 47.2857 16.0677V22.9996H45.6937V16.1814C45.6937 15.3149 45.4801 14.6449 45.0529 14.1714C44.6301 13.6932 44.0432 13.4541 43.2922 13.4541C42.7705 13.4541 42.3028 13.5701 41.8891 13.8021C41.4798 14.0341 41.156 14.3727 40.9177 14.8177C40.6838 15.2628 40.5669 15.8026 40.5669 16.4371Z" fill="white"/>
<path d="M36.3575 12.0907V13.5111H30.9878V12.0907H36.3575ZM32.5528 9.47705H34.1449V19.8748C34.1449 20.3483 34.2101 20.7034 34.3405 20.9401C34.4754 21.1721 34.6463 21.3284 34.8532 21.4089C35.0645 21.4846 35.2871 21.5225 35.521 21.5225C35.6964 21.5225 35.8403 21.513 35.9527 21.4941C36.0652 21.4704 36.1551 21.4515 36.2226 21.4373L36.5464 22.943C36.4384 22.9856 36.2878 23.0282 36.0944 23.0708C35.901 23.1181 35.6559 23.1418 35.3591 23.1418C34.9094 23.1418 34.4687 23.04 34.0369 22.8364C33.6097 22.6328 33.2544 22.3227 32.9711 21.906C32.6922 21.4894 32.5528 20.9638 32.5528 20.3293V9.47705Z" fill="white"/>
<path d="M90.0001 7.40918V12.5001H88.9778V7.40918H90.0001Z" fill="#FFBB0B"/>
<path d="M84.8375 12.5001H83.7419L85.4112 7.40918H86.7287L88.3956 12.5001H87.3L86.0888 8.57253H86.051L84.8375 12.5001ZM84.769 10.499H87.3567V11.3392H84.769V10.499Z" fill="#FFBB0B"/>
<path d="M20.9625 11.1476V7.24843L10.4813 0.5L0 7.24843V22.4203H1.83306V27.5H22.7956V12.3261L20.9625 11.1476Z" fill="#085CF0"/>
</svg>
