<svg width="18" height="18" viewBox="0 0 18 18" fill="none" xmlns="http://www.w3.org/2000/svg">
<path d="M9 15.5625C8.68935 15.5625 8.4375 15.3107 8.4375 15C8.4375 14.6893 8.68935 14.4375 9 14.4375C12.003 14.4375 14.4375 12.003 14.4375 9C14.4375 5.99692 12.003 3.5625 9 3.5625C8.68935 3.5625 8.4375 3.31065 8.4375 3C8.4375 2.68935 8.68935 2.4375 9 2.4375C12.6244 2.4375 15.5625 5.37562 15.5625 9C15.5625 12.6244 12.6244 15.5625 9 15.5625Z" fill="#B7C7E0"/>
<path d="M5.64772 10.8523C5.8674 11.0719 5.8674 11.4281 5.64772 11.6477C5.42805 11.8674 5.07195 11.8674 4.85227 11.6477L2.60227 9.39773C2.3826 9.17805 2.3826 8.82195 2.60227 8.60228L4.85227 6.35228C5.07195 6.1326 5.42805 6.1326 5.64773 6.35228C5.8674 6.57195 5.8674 6.92805 5.64773 7.14773L4.35802 8.4375L10.5 8.4375C10.8107 8.4375 11.0625 8.68935 11.0625 9C11.0625 9.31065 10.8107 9.5625 10.5 9.5625L4.35802 9.5625L5.64772 10.8523Z" fill="#B7C7E0"/>
</svg>
