<svg width="100" height="30" viewBox="0 0 100 30" fill="none" xmlns="http://www.w3.org/2000/svg">
<path d="M81.7225 17.7078V24.9995H79.9536V8.83789H81.7225V14.7722H81.8724C82.1423 14.1462 82.547 13.649 83.0867 13.2808C83.6314 12.9072 84.3559 12.7205 85.2603 12.7205C86.0449 12.7205 86.7319 12.8862 87.3216 13.2176C87.9112 13.5438 88.3684 14.0462 88.6932 14.7249C89.023 15.3983 89.1879 16.2558 89.1879 17.2975V24.9995H87.419V17.4237C87.419 16.461 87.1817 15.7166 86.707 15.1905C86.2372 14.6591 85.5851 14.3934 84.7507 14.3934C84.171 14.3934 83.6513 14.5223 83.1916 14.7801C82.7369 15.0379 82.3771 15.4141 82.1123 15.9086C81.8524 16.4031 81.7225 17.0029 81.7225 17.7078Z" fill="white"/>
<path d="M71.4486 25.2838C70.719 25.2838 70.0569 25.1392 69.4623 24.8498C68.8677 24.5552 68.3955 24.1317 68.0457 23.5793C67.6959 23.0216 67.521 22.3482 67.521 21.5591C67.521 20.8646 67.6509 20.3017 67.9108 19.8703C68.1706 19.4337 68.5179 19.0917 68.9526 18.8444C69.3873 18.5972 69.8671 18.413 70.3917 18.292C70.9214 18.1658 71.4536 18.0658 71.9882 17.9922C72.6878 17.8975 73.255 17.8264 73.6897 17.7791C74.1294 17.7265 74.4492 17.6397 74.6491 17.5187C74.854 17.3977 74.9564 17.1872 74.9564 16.8874V16.8242C74.9564 16.0456 74.754 15.4406 74.3493 15.0092C73.9495 14.5778 73.3424 14.3621 72.5279 14.3621C71.6834 14.3621 71.0213 14.5568 70.5416 14.9461C70.0619 15.3354 69.7246 15.751 69.5298 16.1929L67.8508 15.5616C68.1506 14.8251 68.5504 14.2516 69.0501 13.8413C69.5547 13.4257 70.1044 13.1363 70.699 12.9732C71.2987 12.8049 71.8883 12.7207 72.468 12.7207C72.8377 12.7207 73.2625 12.7681 73.7422 12.8627C74.2269 12.9522 74.6941 13.1389 75.1438 13.423C75.5985 13.7071 75.9758 14.1359 76.2756 14.7093C76.5754 15.2828 76.7253 16.0509 76.7253 17.0136V24.9997H74.9564V23.3583H74.8665C74.7466 23.6214 74.5467 23.9028 74.2668 24.2027C73.987 24.5026 73.6147 24.7577 73.15 24.9682C72.6853 25.1786 72.1182 25.2838 71.4486 25.2838ZM71.7184 23.6109C72.418 23.6109 73.0076 23.4662 73.4873 23.1768C73.972 22.8875 74.3368 22.5139 74.5817 22.0562C74.8315 21.5985 74.9564 21.1172 74.9564 20.6121V18.9076C74.8815 19.0023 74.7166 19.0891 74.4617 19.168C74.2119 19.2416 73.9221 19.3074 73.5923 19.3653C73.2675 19.4179 72.9502 19.4652 72.6403 19.5073C72.3355 19.5441 72.0882 19.5757 71.8983 19.602C71.4386 19.6651 71.0089 19.7677 70.6091 19.9098C70.2143 20.0466 69.8945 20.2544 69.6497 20.5332C69.4098 20.8068 69.2899 21.1803 69.2899 21.6538C69.2899 22.3009 69.5173 22.7901 69.972 23.1216C70.4317 23.4478 71.0138 23.6109 71.7184 23.6109Z" fill="white"/>
<path d="M60.6025 25.2523C59.4932 25.2523 58.5363 24.9945 57.7318 24.4789C56.9323 23.9581 56.3152 23.2321 55.8804 22.3009C55.4507 21.3644 55.2358 20.2754 55.2358 19.0338C55.2358 17.7923 55.4507 16.698 55.8804 15.751C56.3152 14.7988 56.9198 14.057 57.6943 13.5256C58.4738 12.989 59.3833 12.7207 60.4226 12.7207C61.0223 12.7207 61.6144 12.8259 62.1991 13.0364C62.7837 13.2468 63.3159 13.5888 63.7956 14.0622C64.2753 14.5305 64.6575 15.1513 64.9424 15.9246C65.2272 16.698 65.3696 17.6502 65.3696 18.7813V19.5705H56.4951V17.9606H63.5707C63.5707 17.2767 63.4408 16.6664 63.181 16.1298C62.9261 15.5932 62.5613 15.1697 62.0866 14.8593C61.6169 14.5489 61.0623 14.3937 60.4226 14.3937C59.7181 14.3937 59.1085 14.5778 58.5938 14.9461C58.0841 15.3091 57.6918 15.7826 57.417 16.3665C57.1422 16.9505 57.0048 17.5766 57.0048 18.2447V19.3179C57.0048 20.2333 57.1547 21.0093 57.4545 21.6459C57.7593 22.2772 58.1815 22.7586 58.7212 23.09C59.2609 23.4162 59.888 23.5793 60.6025 23.5793C61.0673 23.5793 61.487 23.5109 61.8618 23.3741C62.2415 23.2321 62.5688 23.0216 62.8437 22.7428C63.1185 22.4587 63.3309 22.1062 63.4808 21.6854L65.1897 22.1904C65.0098 22.8007 64.7075 23.3373 64.2828 23.8002C63.858 24.2579 63.3334 24.6157 62.7087 24.8735C62.0841 25.126 61.3821 25.2523 60.6025 25.2523Z" fill="white"/>
<path d="M45.0741 17.7078V24.9995H43.3052V8.83789H45.0741V14.7722H45.224C45.4938 14.1462 45.8986 13.649 46.4382 13.2808C46.9829 12.9072 47.7075 12.7205 48.6119 12.7205C49.3964 12.7205 50.0835 12.8862 50.6731 13.2176C51.2628 13.5438 51.72 14.0462 52.0448 14.7249C52.3746 15.3983 52.5395 16.2558 52.5395 17.2975V24.9995H50.7706V17.4237C50.7706 16.461 50.5332 15.7166 50.0585 15.1905C49.5888 14.6591 48.9367 14.3934 48.1022 14.3934C47.5226 14.3934 47.0029 14.5223 46.5432 14.7801C46.0885 15.0379 45.7287 15.4141 45.4638 15.9086C45.204 16.4031 45.0741 17.0029 45.0741 17.7078Z" fill="white"/>
<path d="M40.397 12.8786V14.4569H34.4307V12.8786H40.397ZM36.1696 9.97461H37.9385V21.5276C37.9385 22.0537 38.011 22.4483 38.1559 22.7114C38.3058 22.9691 38.4957 23.1427 38.7255 23.2322C38.9604 23.3164 39.2077 23.3584 39.4676 23.3584C39.6624 23.3584 39.8223 23.3479 39.9473 23.3269C40.0722 23.3006 40.1721 23.2795 40.2471 23.2638L40.6069 24.9367C40.4869 24.9841 40.3195 25.0314 40.1047 25.0788C39.8898 25.1314 39.6175 25.1577 39.2877 25.1577C38.788 25.1577 38.2983 25.0446 37.8186 24.8184C37.3439 24.5921 36.9491 24.2475 36.6343 23.7846C36.3245 23.3216 36.1696 22.7377 36.1696 22.0327V9.97461Z" fill="white"/>
<path d="M100 7.67578V13.3323H98.8643V7.67578H100Z" fill="#FFBB0B"/>
<path d="M94.2641 13.3323H93.0469L94.9016 7.67578H96.3655L98.2176 13.3323H97.0003L95.6545 8.96839H95.6125L94.2641 13.3323ZM94.188 11.1089H97.0633V12.0425H94.188V11.1089Z" fill="#FFBB0B"/>
<path d="M23.2917 11.8307V7.49825L11.6459 0L0 7.49825V24.3558H2.03673V30H25.3284V13.1401L23.2917 11.8307Z" fill="#085CF0"/>
</svg>
