<svg width="22" height="22" viewBox="0 0 22 22" fill="none" xmlns="http://www.w3.org/2000/svg">
<g clip-path="url(#clip0_280_4278)">
<path d="M5.5 4.40078C5.5 3.79329 5.99251 3.30078 6.6 3.30078H20.9C21.5075 3.30078 22 3.79329 22 4.40078C22 5.00827 21.5075 5.50078 20.9 5.50078H6.6C5.99251 5.50078 5.5 5.00823 5.5 4.40078ZM20.9 9.90078H1.1C0.492508 9.90078 0 10.3933 0 11.0008C0 11.6083 0.492508 12.1008 1.1 12.1008H20.9C21.5075 12.1008 22 11.6083 22 11.0008C22 10.3933 21.5075 9.90078 20.9 9.90078ZM20.9 16.5008H11C10.3926 16.5008 9.9 16.9933 9.9 17.6008C9.9 18.2082 10.3926 18.7008 11 18.7008H20.9C21.5075 18.7008 22 18.2082 22 17.6008C22 16.9933 21.5075 16.5008 20.9 16.5008Z" fill="white"/>
</g>
<defs>
<clipPath id="clip0_280_4278">
<rect width="22" height="22" fill="white"/>
</clipPath>
</defs>
</svg>
