<svg width="11" height="10" viewBox="0 0 11 10" fill="none" xmlns="http://www.w3.org/2000/svg">
<path d="M10.3388 5.91853C10.2938 5.92584 10.2483 5.9292 10.2027 5.92861L2.44243 5.92861L2.61164 6.00732C2.77704 6.08561 2.92752 6.19215 3.05632 6.32214L5.2325 8.49832C5.51911 8.77191 5.56726 9.21204 5.34662 9.54115C5.08982 9.89185 4.59736 9.968 4.24663 9.7112C4.2183 9.69044 4.19136 9.66781 4.16605 9.64347L0.230832 5.70824C-0.076706 5.40105 -0.0769765 4.90273 0.230217 4.59519C0.230414 4.59499 0.230635 4.59477 0.230832 4.59457L4.16605 0.659351C4.47384 0.352428 4.97216 0.353117 5.27911 0.6609C5.30326 0.685127 5.32581 0.710902 5.34662 0.738055C5.56726 1.06716 5.51911 1.50729 5.2325 1.78089L3.06026 3.961C2.94478 4.0766 2.81202 4.17353 2.66673 4.24827L2.43062 4.35453L10.1594 4.35453C10.5615 4.3396 10.9142 4.62045 10.9897 5.01564C11.0593 5.44471 10.7679 5.84893 10.3388 5.91853Z" fill="#FFBB0B"/>
</svg>
