<svg width="18" height="18" viewBox="0 0 18 18" fill="none" xmlns="http://www.w3.org/2000/svg">
<path d="M14.6922 3.30778C13.1719 1.78742 11.1501 0.95 9 0.95C6.8499 0.95 4.82815 1.78742 3.30778 3.30778C1.78742 4.82815 0.95 6.8499 0.95 9C0.95 11.1501 1.78742 13.1719 3.30778 14.6922C4.82815 16.2126 6.8499 17.05 9 17.05C11.1501 17.05 13.1719 16.2126 14.6922 14.6922C16.2126 13.1719 17.05 11.1501 17.05 9C17.05 6.8499 16.2126 4.82815 14.6922 3.30778ZM4.52491 14.3945C4.79833 12.1597 6.72497 10.4377 9 10.4377C10.2043 10.4377 11.3364 10.9068 12.1883 11.7585C12.9015 12.4718 13.3536 13.4011 13.4752 14.3944C12.26 15.4043 10.6998 16.0125 9 16.0125C7.30023 16.0125 5.74012 15.4044 4.52491 14.3945ZM9 9.37212C7.68789 9.37212 6.62019 8.30442 6.62019 6.99231C6.62019 5.68008 7.68789 4.6125 9 4.6125C10.3121 4.6125 11.3798 5.68008 11.3798 6.99231C11.3798 8.30442 10.3121 9.37212 9 9.37212ZM3.63989 13.5166C2.60932 12.2955 1.9875 10.7191 1.9875 9C1.9875 5.13333 5.13333 1.9875 9 1.9875C12.8667 1.9875 16.0125 5.13333 16.0125 9C16.0125 10.7195 15.3904 12.2963 14.3594 13.5174C14.1099 12.5816 13.6166 11.7198 12.9218 11.0249C12.3637 10.4668 11.7074 10.0424 10.9918 9.76751C11.8544 9.14671 12.4173 8.13404 12.4173 6.99231C12.4173 5.10801 10.8843 3.575 9 3.575C7.1157 3.575 5.58269 5.10801 5.58269 6.99231C5.58269 8.13463 6.14606 9.14768 7.00933 9.76839C6.35338 10.0204 5.74608 10.3975 5.22044 10.8872C4.44876 11.6059 3.90569 12.5164 3.63989 13.5166Z" fill="white" stroke="white" stroke-width="0.1"/>
</svg>
